<svg id="downloadIos" viewbox="0 0 139.74 41.41" xmlns="http://www.w3.org/2000/svg">
    <defs>
        <lineargradient gradienttransform="matrix(74.5, 0, 0, -41.4, 17337.74, 16933.29)" gradientunits="userSpaceOnUse" id="downloadIos_linear-gradient" x1="-231.35" x2="-231.35" y1="407.96" y2="411.57">
            <stop offset="0" stop-color="#1a1a1a" stop-opacity="0.1">
            </stop>
            <stop offset="0.12" stop-color="#212121" stop-opacity="0.15">
            </stop>
            <stop offset="0.31" stop-color="#353535" stop-opacity="0.23">
            </stop>
            <stop offset="0.53" stop-color="#575757" stop-opacity="0.32">
            </stop>
            <stop offset="0.78" stop-color="#858585" stop-opacity="0.42">
            </stop>
            <stop offset="1" stop-color="#b3b3b3" stop-opacity="0.51">
            </stop>
        </lineargradient>
        <style>
            #downloadIos .cls-1{fill:#fff}
        </style>
    </defs>
    <path class="cls-1" d="M138.81 36.52a4 4 0 01-4 4H4.9a4 4 0 01-4-4V4.89a4 4 0 014-4h129.94a4 4 0 014 4z">
    </path>
    <path d="M134.84 41.4H4.9A4.89 4.89 0 010 36.52V4.89A4.9 4.9 0 014.9 0h129.94a4.91 4.91 0 014.9 4.89v31.63a4.91 4.91 0 01-4.9 4.89z" fill="#a6a6a6">
    </path>
    <path d="M138.81 36.52a4 4 0 01-4 4H4.9a4 4 0 01-4-4V4.89a4 4 0 014-4h129.94a4 4 0 014 4z">
    </path>
    <path class="cls-1" d="M31.2 20.48a6 6 0 012.86-5 6.17 6.17 0 00-4.84-2.62c-2-.21-4 1.22-5 1.22s-2.66-1.2-4.38-1.16a6.43 6.43 0 00-5.43 3.31c-2.34 4.06-.59 10 1.65 13.31 1.13 1.61 2.44 3.4 4.16 3.34s2.32-1.07 4.35-1.07 2.6 1.07 4.35 1 2.95-1.62 4-3.24a13.21 13.21 0 001.84-3.75 5.81 5.81 0 01-3.56-5.34zm-3.31-9.81a5.93 5.93 0 001.35-4.23 6 6 0 00-3.89 2A5.61 5.61 0 0024 12.53a5 5 0 003.93-1.86z">
    </path>
    <path d="M134.84 0h-69.6L92.5 41.4h42.34a4.89 4.89 0 004.9-4.89V4.89a4.89 4.89 0 00-4.9-4.89z" fill="url(#downloadIos_linear-gradient)">
    </path>
    <path class="cls-1" d="M55.58 32.62h-2.35l-1.29-4h-4.48l-1.23 4h-2.29l4.44-13.78h2.74zm-4-5.75l-1.16-3.59c-.13-.37-.36-1.24-.7-2.6-.14.59-.36 1.45-.65 2.6l-1.15 3.59zm15.42.66a5.59 5.59 0 01-1.38 4 4 4 0 01-3.06 1.32 3.07 3.07 0 01-2.84-1.41v5.21h-2.24V26c0-1.09 0-2.18-.08-3.26h1.94l.13 1.57a3.66 3.66 0 013.35-1.78 3.7 3.7 0 012.94 1.39A5.51 5.51 0 0167 27.53zm-2.25.08a4.13 4.13 0 00-.65-2.39 2.25 2.25 0 00-1.93-1 2.29 2.29 0 00-1.48.54 2.52 2.52 0 00-.87 1.42 3.1 3.1 0 00-.1.67v1.66a2.63 2.63 0 00.67 1.83 2.19 2.19 0 001.72.75 2.28 2.28 0 002-1 4.27 4.27 0 00.69-2.54zm13.68-.08a5.6 5.6 0 01-1.38 4A4 4 0 0174 32.85a3.07 3.07 0 01-2.84-1.41v5.21h-2.25V26c0-1.09 0-2.18-.08-3.26h1.94l.13 1.57a3.66 3.66 0 013.35-1.78 3.7 3.7 0 012.94 1.39 5.51 5.51 0 011.17 3.66zm-2.25.08a4.13 4.13 0 00-.65-2.39 2.25 2.25 0 00-1.92-1 2.32 2.32 0 00-1.49.54 2.52 2.52 0 00-.87 1.42 3 3 0 00-.1.67v1.66a2.67 2.67 0 00.66 1.83 2.21 2.21 0 001.73.75 2.24 2.24 0 001.94-1 4.2 4.2 0 00.7-2.54zm15 1.14A3.7 3.7 0 0190 31.62a5.46 5.46 0 01-3.76 1.2 6.51 6.51 0 01-3.61-.82l.51-1.84a6.11 6.11 0 003.19.86 3 3 0 002-.56 1.82 1.82 0 00.69-1.5 1.92 1.92 0 00-.57-1.41 5.28 5.28 0 00-1.9-1.06c-2.42-.9-3.62-2.22-3.62-3.95a3.48 3.48 0 011.27-2.78 5.09 5.09 0 013.39-1.08 6.66 6.66 0 013.13.65l-.56 1.8a5.48 5.48 0 00-2.64-.63 2.71 2.71 0 00-1.83.57 1.65 1.65 0 00-.56 1.25 1.71 1.71 0 00.64 1.35 7.44 7.44 0 002 1.06 6.81 6.81 0 012.62 1.67 3.5 3.5 0 01.84 2.39zm7.32-4.41h-2.43v4.82c0 1.23.43 1.84 1.29 1.84a3.89 3.89 0 001-.1l.06 1.68a5.11 5.11 0 01-1.72.24 2.68 2.68 0 01-2.05-.8 3.91 3.91 0 01-.73-2.68v-5h-1.47v-1.66h1.45v-1.82l2.17-.65v2.47h2.43v1.66zm11 3.23a5.45 5.45 0 01-1.31 3.76 4.65 4.65 0 01-3.64 1.51 4.45 4.45 0 01-3.55-1.45 5.28 5.28 0 01-1.29-3.66 5.36 5.36 0 011.36-3.73 4.63 4.63 0 013.61-1.47 4.55 4.55 0 013.51 1.45 5.21 5.21 0 011.27 3.59zm-2.29.05a4.47 4.47 0 00-.59-2.34 2.19 2.19 0 00-2-1.19 2.22 2.22 0 00-2 1.19 4.45 4.45 0 00-.59 2.38 4.41 4.41 0 00.59 2.35 2.27 2.27 0 004 0 4.45 4.45 0 00.55-2.39zm9.47-3a4 4 0 00-.7-.06 2.12 2.12 0 00-1.8.88 3.39 3.39 0 00-.55 2v5.21h-2.21v-6.84c0-1 0-2.08-.06-3.13h1.92l.08 1.9h.07a3.38 3.38 0 011.1-1.57 2.69 2.69 0 011.6-.53 3.16 3.16 0 01.55 0v2.1zm9.87 2.56a4.77 4.77 0 01-.08 1h-6.62a2.87 2.87 0 001 2.25 3.31 3.31 0 002.17.7 7.43 7.43 0 002.68-.47l.34 1.53a8.28 8.28 0 01-3.33.61 4.81 4.81 0 01-3.71-1.36 5 5 0 01-1.32-3.64 5.67 5.67 0 011.23-3.74 4.23 4.23 0 013.48-1.6 3.69 3.69 0 013.25 1.6 5.36 5.36 0 01.87 3.12zm-2.1-.57a3 3 0 00-.43-1.7 1.94 1.94 0 00-1.76-.92 2.11 2.11 0 00-1.76.9 3.39 3.39 0 00-.65 1.72zM46.82 14a14.17 14.17 0 01-1.58-.08V7.23a10.56 10.56 0 011.87-.14c2.53 0 3.69 1.24 3.69 3.27 0 2.34-1.37 3.64-3.98 3.64zm.37-6a4.37 4.37 0 00-.87.07v5.06a5.83 5.83 0 00.73 0 2.4 2.4 0 002.61-2.71 2.21 2.21 0 00-2.47-2.45zm7.25 6a2.32 2.32 0 01-2.35-2.51 2.38 2.38 0 012.43-2.59 2.31 2.31 0 012.35 2.51A2.39 2.39 0 0154.44 14zm0-4.3c-.78 0-1.29.73-1.29 1.76s.52 1.73 1.28 1.73 1.27-.78 1.27-1.76-.5-1.73-1.26-1.73zM65 9l-1.53 4.88h-1l-.64-2.12c-.15-.52-.28-1-.39-1.58a10.72 10.72 0 01-.39 1.58l-.67 2.12h-1L57.93 9h1.12l.55 2.32q.19.83.33 1.56a14.17 14.17 0 01.41-1.55L61.05 9h.88l.67 2.28c.16.55.29 1.09.39 1.61a13.57 13.57 0 01.33-1.61L63.94 9zm5.62 4.88h-1.07V11.1q0-1.29-1-1.29A1.12 1.12 0 0067.48 11v2.91h-1.09V9.02h1v.76a1.76 1.76 0 011.55-.86c1 0 1.69.79 1.69 2.06v2.93zm3 0h-1.08v-7.1h1.09zm4 .11a2.33 2.33 0 01-2.35-2.51 2.39 2.39 0 012.43-2.59 2.32 2.32 0 012.3 2.54A2.4 2.4 0 0177.58 14zm0-4.3c-.78 0-1.28.73-1.28 1.76s.51 1.73 1.27 1.73 1.28-.78 1.28-1.76-.5-1.73-1.27-1.73zm6.67 4.19l-.07-.56a1.68 1.68 0 01-1.43.67 1.42 1.42 0 01-1.5-1.44c0-1.2 1-1.83 2.86-1.83v-.09q0-1-1-1a2.27 2.27 0 00-1.27.36l-.22-.71a3.11 3.11 0 011.67-.43c1.28 0 1.92.68 1.92 2v1.8a7.22 7.22 0 00.07 1.17zm-.15-2.43c-1.2 0-1.81.29-1.81 1a.7.7 0 00.75.76 1 1 0 001.07-1v-.75zm6.33 2.43v-.79a1.62 1.62 0 01-1.57.9 2.23 2.23 0 01-2-2.49c0-1.53.91-2.61 2.14-2.61a1.45 1.45 0 011.38.67V6.78h.98v7.13zM90.31 11a1.18 1.18 0 00-1.14-1.26c-.81 0-1.3.71-1.3 1.72s.51 1.65 1.28 1.65a1.21 1.21 0 001.16-1.29V11zm8 3a2.32 2.32 0 01-2.35-2.51 2.38 2.38 0 012.43-2.59 2.31 2.31 0 012.35 2.51A2.39 2.39 0 0198.29 14zm0-4.3c-.79 0-1.29.73-1.29 1.76s.52 1.73 1.28 1.73 1.27-.78 1.27-1.76-.5-1.73-1.26-1.73zm8.23 4.19h-1.09V11.1c0-.86-.33-1.29-1-1.29A1.12 1.12 0 00103.4 11v2.91h-1.08V9.02h1v.76a1.77 1.77 0 011.55-.86c1 0 1.7.79 1.7 2.06v2.93zm7.3-4.07h-1.19v2.37q0 .9.63.9a2.14 2.14 0 00.48 0v.83a2.41 2.41 0 01-.76.08c-.86 0-1.37-.47-1.37-1.71V9.84h-.71V9h.71v-.9l1.07-.32V9h1.19v.82zm5.75 4.07h-1.09v-2.77c0-.87-.33-1.31-1-1.31a1.06 1.06 0 00-1.05 1.19v2.95h-1.08V6.78h1.08v2.94a1.66 1.66 0 011.47-.8c1 0 1.67.81 1.67 2.08zm5.88-2.18h-3.25a1.39 1.39 0 001.53 1.44 3.65 3.65 0 001.32-.23l.17.76a4.1 4.1 0 01-1.64.3 2.27 2.27 0 01-2.43-2.46 2.39 2.39 0 012.31-2.63 2.05 2.05 0 012 2.33 1.63 1.63 0 01.01.51zm-1-.78c0-.75-.38-1.28-1.08-1.28a1.28 1.28 0 00-1.15 1.35z">
    </path>
</svg>
