<svg xmlns="http://www.w3.org/2000/svg" viewBox="0 0 140 41" id="downloadAndroid">
	<defs><linearGradient id="downloadAndroid_a" x1="-216.66" x2="-217.95" y1="402.32" y2="401.65" gradientTransform="matrix(13.48, 0, 0, -25.63, 2943.64, 10318.31)" gradientUnits="userSpaceOnUse"><stop offset="0" stop-color="#00a0ff"></stop><stop offset="0.01" stop-color="#00a1ff"></stop><stop offset="0.26" stop-color="#00beff"></stop><stop offset="0.51" stop-color="#00d2ff"></stop><stop offset="0.76" stop-color="#00dfff"></stop><stop offset="1" stop-color="#00e3ff"></stop></linearGradient><linearGradient id="downloadAndroid_b" x1="-211.6" x2="-213.98" y1="373.46" y2="373.46" gradientTransform="matrix(10.53, 0, 0, -8.71, 2262.36, 3274.52)" gradientUnits="userSpaceOnUse"><stop offset="0" stop-color="#ffe000"></stop><stop offset="0.41" stop-color="#ffbd00"></stop><stop offset="0.78" stop-color="orange"></stop><stop offset="1" stop-color="#ff9c00"></stop></linearGradient><linearGradient id="downloadAndroid_c" x1="-220.57" x2="-221.93" y1="388.44" y2="386.67" gradientTransform="matrix(17.32, 0, 0, -13.21, 3845.51, 5154.41)" gradientUnits="userSpaceOnUse"><stop offset="0" stop-color="#ff3a44"></stop><stop offset="1" stop-color="#c31162"></stop></linearGradient><linearGradient id="downloadAndroid_d" x1="-221.62" x2="-221.01" y1="389.03" y2="388.23" gradientTransform="matrix(17.32, 0, 0, -13.15, 3845.51, 5115.77)" gradientUnits="userSpaceOnUse"><stop offset="0" stop-color="#32a071"></stop><stop offset="0.07" stop-color="#2da771"></stop><stop offset="0.48" stop-color="#15cf74"></stop><stop offset="0.8" stop-color="#06e775"></stop><stop offset="1" stop-color="#00f076"></stop></linearGradient></defs><path d="M134.82 41H5.18A5.11 5.11 0 010 35.88V5.12A5.11 5.11 0 015.18 0h129.64A5.11 5.11 0 01140 5.12v30.76a5.11 5.11 0 01-5.18 5.12z"></path><path fill="#a6a6a6" d="M134.82.82a4.36 4.36 0 014.35 4.3v30.76a4.36 4.36 0 01-4.35 4.3H5.18a4.36 4.36 0 01-4.35-4.3V5.12A4.36 4.36 0 015.18.82zm0-.82H5.18A5.17 5.17 0 000 5.12v30.76A5.11 5.11 0 005.18 41h129.64a5.11 5.11 0 005.18-5.12V5.12A5.17 5.17 0 00134.82 0z"></path><path fill="#fff" stroke="#fff" stroke-width=".2px" d="M49.16 10.45a2.8 2.8 0 01-.73 2.06 3.29 3.29 0 01-4.56 0 3 3 0 01-.94-2.26A3 3 0 0143.87 8a3.07 3.07 0 012.28-.92 2.84 2.84 0 011.24.31 2.29 2.29 0 01.94.72l-.52.51a2 2 0 00-1.66-.72 2.08 2.08 0 00-1.66.72 2.1 2.1 0 00-.73 1.74 2.11 2.11 0 00.73 1.75 2.69 2.69 0 001.66.71 2.29 2.29 0 001.76-.71 1.71 1.71 0 00.52-1.24h-2.28v-.81h3zm4.77-2.56h-2.8v2h2.59v.72h-2.59v1.95h2.8v.81H50.3v-6.2h3.63v.72zm3.42 5.44h-.83V7.89h-1.76v-.71h4.35v.71h-1.76zm4.77 0V7.18H63v6.15zm4.35 0h-.83V7.89h-1.76v-.71h4.25v.71h-1.76v5.44zm9.86-.82a3.3 3.3 0 01-4.57 0 3 3 0 01-.93-2.26A3 3 0 0171.76 8a3.27 3.27 0 014.57 0 3 3 0 01.93 2.25 3 3 0 01-.93 2.26zM72.39 12a2.44 2.44 0 001.65.72A2 2 0 0075.7 12a2.43 2.43 0 00.73-1.74 2.09 2.09 0 00-.73-1.74 2.44 2.44 0 00-1.7-.73 2.1 2.1 0 00-1.66.72 2.47 2.47 0 00-.72 1.74 2.11 2.11 0 00.76 1.75zm6 1.34V7.18h.93l3 4.81V7.18h.83v6.15h-.83l-3.21-5v5z"></path><path fill="#fff" d="M70.62 22.34a4.34 4.34 0 00-4.46 4.41 4.4 4.4 0 004.46 4.41 4.34 4.34 0 004.46-4.41 4.28 4.28 0 00-4.46-4.41zm0 7a2.67 2.67 0 010-5.33 2.5 2.5 0 012.49 2.67 2.55 2.55 0 01-2.49 2.63zm-9.64-7a4.34 4.34 0 00-4.46 4.41A4.4 4.4 0 0061 31.16a4.34 4.34 0 004.46-4.41A4.28 4.28 0 0061 22.34zm0 7A2.67 2.67 0 0161 24a2.5 2.5 0 012.49 2.67A2.55 2.55 0 0161 29.31zm-11.51-5.66v1.84h4.46a3.87 3.87 0 01-1 2.36 4.63 4.63 0 01-3.42 1.33 4.8 4.8 0 01-4.88-4.92 4.86 4.86 0 014.88-4.92 5.21 5.21 0 013.42 1.33l1.35-1.33a6.72 6.72 0 00-4.67-1.84 7 7 0 00-7 6.76 7 7 0 007 6.77 6 6 0 004.77-1.95A6.15 6.15 0 0056 24.8a3.86 3.86 0 00-.1-1.12zm47.08 1.43a4 4 0 00-3.73-2.77 4.15 4.15 0 00-4.15 4.41A4.31 4.31 0 0093 31.16a4.25 4.25 0 003.63-1.95l-1.45-1A2.55 2.55 0 0193 29.42a2.25 2.25 0 01-2.18-1.34l5.92-2.46zm-6 1.44A2.51 2.51 0 0192.82 24a1.84 1.84 0 011.66.93zm-4.87 4.2h2V17.94h-2zm-3.11-7.48a3.46 3.46 0 00-2.39-1 4.43 4.43 0 00-4.25 4.41A4.26 4.26 0 0080.16 31a3 3 0 002.28-1h.11v.62a2.36 2.36 0 01-4.56 1l-1.66.72a4.27 4.27 0 003.94 2.56c2.28 0 4.15-1.33 4.15-4.51v-7.84h-1.87v.72zm-2.28 6.05a2.67 2.67 0 010-5.33 2.47 2.47 0 012.38 2.66 2.48 2.48 0 01-2.4 2.67zm25.3-11.38h-4.66v12.81h2v-4.82h2.69a4 4 0 100-8zm.11 6.15h-2.8v-4.41h2.8a2.26 2.26 0 012.3 2.15 2.37 2.37 0 01-2.32 2.26zm11.92-1.85a3.5 3.5 0 00-3.42 2l1.76.72a1.84 1.84 0 011.77-.92 1.94 1.94 0 012.07 1.63v.11a4.09 4.09 0 00-2-.51c-1.87 0-3.73 1-3.73 2.86a3 3 0 003.22 2.87 2.92 2.92 0 002.49-1.23h.1v1h1.87v-4.94a3.91 3.91 0 00-4.15-3.59zm-.21 7.08c-.62 0-1.55-.31-1.55-1.13 0-1 1.14-1.34 2.07-1.34a4.16 4.16 0 011.77.41 2.43 2.43 0 01-2.31 2.06zm10.89-6.77l-2.18 5.54H126l-2.28-5.54h-2.08l3.43 7.79-2 4.31h2l5.29-12.1zm-17.42 8.2h2V17.94h-2z"></path><path fill="url(#downloadAndroid_a)" d="M10.78 7.69a2 2 0 00-.41 1.43v22.66a2 2 0 00.52 1.43l.1.1L23.85 20.6v-.2L10.78 7.69z"></path><path fill="url(#downloadAndroid_b)" d="M28 24.91l-4.25-4.21v-.3L28 16.2l.1.1 5.08 2.87c1.46.82 1.46 2.15 0 3z"></path><path fill="url(#downloadAndroid_c)" d="M28.1 24.8l-4.35-4.3-13 12.81c.52.51 1.25.51 2.18.1l15.14-8.6"></path><path fill="url(#downloadAndroid_d)" d="M28.1 16.2L13 7.69a1.71 1.71 0 00-2.18.1l13 12.71z"></path><path d="M28 24.7l-15 8.41a1.71 1.71 0 01-2.07 0l-.11.1.11.1a1.69 1.69 0 002.07 0z" opacity=".2" style="isolation:isolate"></path><path d="M10.78 33.11a2 2 0 01-.41-1.44v.11a2 2 0 00.52 1.43v-.1zm22.4-11.28L28 24.7l.1.1 5.09-2.87a1.7 1.7 0 001-1.43c.03.5-.38.92-1.01 1.33z" opacity=".12" style="isolation:isolate"></path><path style="isolation:isolate" fill="#fff" d="M13 7.79l20.19 11.38c.62.41 1 .82 1 1.33a1.7 1.7 0 00-1-1.43L13 7.69c-1.45-.82-2.59-.21-2.59 1.43v.11C10.37 7.69 11.51 7 13 7.79z" opacity=".25"></path></svg>